<?xml version="1.0" encoding="UTF-8"?>
<svg id="Layer_2" data-name="Layer 2" xmlns="http://www.w3.org/2000/svg" viewBox="0 0 1020.64 1170.67">
  <defs>
    <style>
      .cls-1 {
        letter-spacing: .21em;
      }

      .cls-2 {
        stroke-width: 3px;
      }

      .cls-2, .cls-3, .cls-4, .cls-5 {
        fill: none;
      }

      .cls-2, .cls-4, .cls-5, .cls-6 {
        stroke-linecap: round;
        stroke-linejoin: round;
      }

      .cls-2, .cls-5, .cls-6 {
        stroke: #1d1d1b;
      }

      .cls-7 {
        letter-spacing: .18em;
      }

      .cls-8 {
        fill: #000;
        font-size: 65.87px;
      }

      .cls-8, .cls-9 {
        font-family: BebasNeue-Regular, 'Bebas Neue';
      }

      .cls-3 {
        stroke-miterlimit: 10;
      }

      .cls-3, .cls-4 {
        stroke: #fff;
      }

      .cls-10, .cls-9 {
        fill: #1d1d1b;
      }

      .cls-10, .cls-11, .cls-12 {
        stroke-width: 0px;
      }

      .cls-13 {
        letter-spacing: .2em;
      }

      .cls-14 {
        letter-spacing: .16em;
      }

      .cls-9 {
        font-size: 55px;
      }

      .cls-11 {
        fill: #ef8206;
      }

      .cls-15 {
        letter-spacing: .2em;
      }

      .cls-16 {
        letter-spacing: .2em;
      }

      .cls-6, .cls-12 {
        fill: #fff;
      }

      .cls-17 {
        letter-spacing: .19em;
      }

      .cls-18 {
        letter-spacing: .19em;
      }
    </style>
  </defs>
  <g id="Layer_4" data-name="Layer 4">
    <path class="cls-11" d="M1019.98,536.19c.88-17.21.89-34.2,0-50.97l-57.92-18.63v.5c-.99-10.47-2.33-20.84-4.02-31.09l.15.55,51.11-33.15c-3.61-16.85-8-33.27-13.19-49.24l-60.71-3c-3.57-9.54-7.45-18.93-11.64-28.15l.08.13,40.79-45.25c-7.85-15.34-16.33-30.06-25.48-44.15l-59.47,12.83.2.35c-6.17-8.64-12.64-17.06-19.38-25.24l.81.81,27.69-54.26c-11.55-12.79-23.56-24.81-36.04-36.05l-54.12,27.78.44.44c-8.18-6.76-16.61-13.24-25.26-19.43l.83.48,12.7-59.58c-14.47-9.36-29.18-17.87-44.14-25.49l-45.06,40.82c-9.19-4.19-18.54-8.08-28.04-11.66l.06.02-3.16-60.84c-16.4-5.3-32.81-9.71-49.23-13.2l-32.98,51.12h0c-10.24-1.69-20.6-3.04-31.06-4.04h1.03S536.19.66,536.19.66c-17.21-.88-34.2-.89-50.97,0l-18.63,57.92h.5c-10.47.99-20.84,2.33-31.09,4.02l.55-.15-33.15-51.11c-16.85,3.61-33.27,8-49.24,13.19l-3,60.72c-9.54,3.57-18.93,7.45-28.15,11.64l.13-.08-45.25-40.79c-15.34,7.85-30.06,16.33-44.15,25.48l12.83,59.47.35-.2c-8.64,6.17-17.06,12.64-25.24,19.38l.81-.81-54.26-27.69c-12.79,11.55-24.81,23.56-36.05,36.04l27.78,54.12.44-.44c-6.76,8.18-13.24,16.61-19.43,25.26l.48-.84-59.58-12.7c-9.36,14.47-17.87,29.18-25.49,44.14l40.82,45.06c-4.19,9.19-8.08,18.54-11.66,28.04l.02-.06-60.84,3.16c-5.3,16.4-9.71,32.81-13.2,49.23l51.12,32.98h0c-1.7,10.24-3.04,20.59-4.04,31.05v-1.03S.66,484.45.66,484.45c-.88,17.21-.89,34.2,0,50.97l57.92,18.63v-.5c.99,10.47,2.33,20.84,4.02,31.09l-.15-.55-51.11,33.15c3.61,16.85,8,33.27,13.19,49.24l60.71,3c3.57,9.54,7.45,18.93,11.64,28.15l-.08-.13-40.79,45.25c7.85,15.34,16.33,30.06,25.48,44.15l59.47-12.83-.2-.35c6.17,8.64,12.64,17.06,19.38,25.24l-.81-.81-27.69,54.26c11.55,12.79,23.56,24.81,36.04,36.05l54.12-27.78-.44-.44c8.18,6.76,16.61,13.24,25.26,19.43l-.83-.48-12.7,59.58c14.47,9.36,29.18,17.87,44.14,25.49l45.06-40.82c9.19,4.19,18.54,8.08,28.04,11.66l-.06-.02,3.15,60.84c16.4,5.3,32.81,9.71,49.23,13.2l32.98-51.12h0c10.24,1.69,20.6,3.04,31.06,4.04h-1.03s18.79,57.95,18.79,57.95c17.21.88,34.2.89,50.97,0l18.63-57.92h-.5c10.47-.99,20.84-2.33,31.09-4.02l-.55.15,33.15,51.11c16.85-3.61,33.27-8,49.24-13.19l3-60.72c9.54-3.57,18.93-7.45,28.15-11.64l-.13.08,45.25,40.79c15.34-7.85,30.06-16.33,44.15-25.48l-12.83-59.47-.35.2c8.64-6.17,17.06-12.64,25.24-19.38l-.81.81,54.26,27.69c12.79-11.55,24.81-23.56,36.05-36.04l-27.78-54.12-.44.44c6.76-8.18,13.25-16.61,19.43-25.26l-.48.83,59.58,12.7c9.36-14.47,17.87-29.18,25.49-44.14l-40.82-45.06c4.19-9.19,8.08-18.54,11.66-28.04l-.02.06,60.84-3.16c5.3-16.4,9.71-32.81,13.2-49.23l-51.12-32.98h0c1.7-10.24,3.04-20.59,4.04-31.05v1.04s57.95-18.79,57.95-18.79ZM510.32,867.78c-197.42,0-357.46-160.04-357.46-357.46S312.9,152.86,510.32,152.86s357.46,160.04,357.46,357.46-160.04,357.46-357.46,357.46Z"/>
    <g>
      <text class="cls-8" transform="translate(130.4 503.4) rotate(-86.89)"><tspan x="0" y="0">C</tspan></text>
      <text class="cls-8" transform="translate(132.98 466.35) rotate(-81.14)"><tspan x="0" y="0">O</tspan></text>
      <text class="cls-8" transform="translate(139.52 428.71) rotate(-75.57)"><tspan x="0" y="0">L</tspan></text>
      <text class="cls-8" transform="translate(148.65 395.41) rotate(-70.3)"><tspan x="0" y="0">L</tspan></text>
      <text class="cls-8" transform="translate(160.78 363.08) rotate(-64.97)"><tspan x="0" y="0">E</tspan></text>
      <text class="cls-8" transform="translate(176.38 330.92) rotate(-59.45)"><tspan x="0" y="0">G</tspan></text>
      <text class="cls-8" transform="translate(196.02 298.85) rotate(-53.97)"><tspan x="0" y="0">E</tspan></text>
      <text class="cls-8" transform="translate(217.75 270.18) rotate(-49.62)"><tspan x="0" y="0"> </tspan></text>
      <text class="cls-8" transform="translate(232.5 253.09) rotate(-45.1)"><tspan x="0" y="0">O</tspan></text>
      <text class="cls-8" transform="translate(259.92 226.48) rotate(-39.71)"><tspan x="0" y="0">F</tspan></text>
      <text class="cls-8" transform="translate(287.07 204.81) rotate(-35.45)"><tspan x="0" y="0"> </tspan></text>
      <text class="cls-8" transform="translate(305.6 191.87) rotate(-31.08)"><tspan x="0" y="0">E</tspan></text>
      <text class="cls-8" transform="translate(336.44 173.84) rotate(-25.39)"><tspan x="0" y="0">N</tspan></text>
      <text class="cls-8" transform="translate(372.77 157.33) rotate(-19.51)"><tspan x="0" y="0">G</tspan></text>
      <text class="cls-8" transform="translate(408.58 145.46) rotate(-14.75)"><tspan x="0" y="0">I</tspan></text>
      <text class="cls-8" transform="translate(432.42 139.37) rotate(-9.8)"><tspan x="0" y="0">N</tspan></text>
      <text class="cls-8" transform="translate(471.86 133.27) rotate(-4.03)"><tspan x="0" y="0">E</tspan></text>
      <text class="cls-8" transform="translate(507.58 131.32) rotate(1.39)"><tspan x="0" y="0">E</tspan></text>
      <text class="cls-8" transform="translate(543.28 132.7) rotate(7.03)"><tspan x="0" y="0">R</tspan></text>
      <text class="cls-8" transform="translate(581.39 138.2) rotate(11.86)"><tspan x="0" y="0">I</tspan></text>
      <text class="cls-8" transform="translate(605.41 143.43) rotate(16.81)"><tspan x="0" y="0">N</tspan></text>
      <text class="cls-8" transform="translate(643.42 155.61) rotate(22.7)"><tspan x="0" y="0">G</tspan></text>
      <text class="cls-8" transform="translate(677.96 170.91) rotate(27.26)"><tspan x="0" y="0"> </tspan></text>
      <text class="cls-8" transform="translate(697.94 181.37) rotate(31.92)"><tspan x="0" y="0">&amp;</tspan></text>
      <text class="cls-8" transform="translate(730.98 202.92) rotate(36.54)"><tspan x="0" y="0"> </tspan></text>
      <text class="cls-8" transform="translate(749.02 216.55) rotate(40.9)"><tspan x="0" y="0">T</tspan></text>
      <text class="cls-8" transform="translate(775.77 240.45) rotate(46.21)"><tspan x="0" y="0">E</tspan></text>
      <text class="cls-8" transform="translate(800.14 266.62) rotate(51.61)"><tspan x="0" y="0">C</tspan></text>
      <text class="cls-8" transform="translate(822.73 295.97) rotate(57.34)"><tspan x="0" y="0">N</tspan></text>
      <text class="cls-8" transform="translate(843.72 329.91) rotate(63.19)"><tspan x="0" y="0">O</tspan></text>
      <text class="cls-8" transform="translate(860.36 364.28) rotate(68.69)"><tspan x="0" y="0">L</tspan></text>
      <text class="cls-8" transform="translate(872.36 396.34) rotate(74.19)"><tspan x="0" y="0">O</tspan></text>
      <text class="cls-8" transform="translate(882.16 433.2) rotate(79.98)"><tspan x="0" y="0">G</tspan></text>
      <text class="cls-8" transform="translate(888.01 469.31) rotate(85.59)"><tspan x="0" y="0">Y</tspan></text>
    </g>
    <g>
      <text class="cls-8" transform="translate(116.35 687.82) rotate(62.79)"><tspan x="0" y="0">A</tspan></text>
      <text class="cls-8" transform="translate(137.67 727.19) rotate(57.01)"><tspan x="0" y="0">C</tspan></text>
      <text class="cls-8" transform="translate(162.23 763.41) rotate(51.17)"><tspan x="0" y="0">H</tspan></text>
      <text class="cls-8" transform="translate(191.47 798.01) rotate(46.27)"><tspan x="0" y="0">I</tspan></text>
      <text class="cls-8" transform="translate(212.55 819.36) rotate(41.66)"><tspan x="0" y="0">E</tspan></text>
      <text class="cls-8" transform="translate(244.61 846.74) rotate(36.11)"><tspan x="0" y="0">V</tspan></text>
      <text class="cls-8" transform="translate(280.25 871.6) rotate(30.53)"><tspan x="0" y="0">E</tspan></text>
      <text class="cls-8" transform="translate(317.16 892.38) rotate(24.79)"><tspan x="0" y="0">R</tspan></text>
      <text class="cls-8" transform="translate(358.47 910.37) rotate(18.97)"><tspan x="0" y="0">S</tspan></text>
      <text class="cls-8" transform="translate(398.4 923.05) rotate(14.33)"><tspan x="0" y="0"> </tspan></text>
      <text class="cls-8" transform="translate(425.68 929.61) rotate(9.53)"><tspan x="0" y="0">U</tspan></text>
      <text class="cls-8" transform="translate(470.53 936.16) rotate(3.4)"><tspan x="0" y="0">N</tspan></text>
      <text class="cls-8" transform="translate(516.4 937.76) rotate(-1.63)"><tspan x="0" y="0">I</tspan></text>
      <text class="cls-8" transform="translate(546.58 936.43) rotate(-6.47)"><tspan x="0" y="0">V</tspan></text>
      <text class="cls-8" transform="translate(589.74 930.58) rotate(-12.18)"><tspan x="0" y="0">E</tspan></text>
      <text class="cls-8" transform="translate(631.03 920.77) rotate(-18)"><tspan x="0" y="0">R</tspan></text>
      <text class="cls-8" transform="translate(673.58 905.9) rotate(-23.83)"><tspan x="0" y="0">S</tspan></text>
      <text class="cls-8" transform="translate(711.57 888.06) rotate(-28.57)"><tspan x="0" y="0">I</tspan></text>
      <text class="cls-8" transform="translate(737.76 873.25) rotate(-33.25)"><tspan x="0" y="0">T</tspan></text>
      <text class="cls-8" transform="translate(772.91 849.16) rotate(-38.91)"><tspan x="0" y="0">Y</tspan></text>
      <text class="cls-8" transform="translate(805.95 821.19) rotate(-43.52)"><tspan x="0" y="0"> </tspan></text>
      <text class="cls-8" transform="translate(825.93 801.68) rotate(-48.16)"><tspan x="0" y="0">O</tspan></text>
      <text class="cls-8" transform="translate(855.77 767.15) rotate(-54.75)"><tspan x="0" y="0">W</tspan></text>
      <text class="cls-8" transform="translate(886.9 720.65) rotate(-61.38)"><tspan x="0" y="0">O</tspan></text>
    </g>
    <circle class="cls-12" cx="909.04" cy="598" r="14.36"/>
    <circle class="cls-12" cx="111.61" cy="598" r="14.36"/>
    <g>
      <path class="cls-10" d="M511.22,403.53c-53.31-11.93-109.04-3.23-136.39,8.58v-131.98c41.62-4.01,102.64-14.41,136.39,5.24v118.15Z"/>
      <path class="cls-6" d="M511.22,403.53c-32.29-19.33-70-23.01-112.05-14.16v-118.15c40.56-8.61,78.3-5.5,112.05,14.16v118.15Z"/>
      <path class="cls-10" d="M511.22,403.53c53.31-11.93,109.04-3.23,136.39,8.58v-131.98c-41.62-4.01-102.64-14.41-136.39,5.24v118.15Z"/>
      <path class="cls-6" d="M511.22,403.53c32.29-19.33,70-23.01,112.05-14.16v-118.15c-40.56-8.61-78.3-5.5-112.05,14.16v118.15Z"/>
    </g>
    <g>
      <path class="cls-10" d="M643.77,568.13l-5.73,21.16-6.31,23.31-25.98,96c-1.22,5.22,2.02,10.44,7.23,11.66,5.22,1.22,10.44-2.02,11.66-7.23l35.26-136.42-16.14-8.48Z"/>
      <path class="cls-10" d="M679.87,568.13l5.93,21.9,6.07,22.41,26.03,96.15c1.22,5.22-2.02,10.44-7.23,11.66s-10.44-2.02-11.66-7.23l-35.26-136.42,16.14-8.48Z"/>
      <circle class="cls-10" cx="661.82" cy="553.37" r="24.25"/>
      <path class="cls-5" d="M689.27,675.07c-5.83,3.71-12.5,6.22-19.66,7.19"/>
      <path class="cls-5" d="M712.02,636.93c-.57,8.3-3.2,16.03-7.38,22.69"/>
      <path class="cls-5" d="M619.69,657.09c-3.32-6.06-5.39-12.89-5.9-20.15"/>
      <path class="cls-5" d="M655.31,682.14c-7.56-1.17-14.54-4.06-20.55-8.25"/>
      <polyline class="cls-10" points="596.62 638.54 596.62 590.03 570.35 590.03 570.35 735.29 596.62 735.29 596.62 662.66"/>
      <polygon class="cls-10" points="748.18 638.54 748.18 590.03 726.34 590.03 726.34 719.56 737.26 735.29 748.18 719.56 748.18 662.66 748.18 638.54"/>
      <line class="cls-4" x1="748.18" y1="607.06" x2="726.34" y2="607.06"/>
      <line class="cls-4" x1="748.18" y1="626.9" x2="726.34" y2="626.9"/>
      <line class="cls-4" x1="748.18" y1="635.05" x2="726.34" y2="635.05"/>
      <line class="cls-4" x1="748.18" y1="707.18" x2="726.34" y2="707.18"/>
      <line class="cls-3" x1="570.35" y1="605.78" x2="586.81" y2="605.78"/>
      <line class="cls-3" x1="570.35" y1="620.27" x2="586.81" y2="620.27"/>
      <line class="cls-3" x1="570.35" y1="634.75" x2="586.81" y2="634.75"/>
      <line class="cls-3" x1="570.35" y1="649.24" x2="581.95" y2="649.24"/>
      <line class="cls-3" x1="570.35" y1="663.72" x2="586.81" y2="663.72"/>
      <line class="cls-3" x1="570.35" y1="678.21" x2="581.95" y2="678.21"/>
      <line class="cls-3" x1="570.35" y1="692.7" x2="586.81" y2="692.7"/>
      <line class="cls-3" x1="570.35" y1="707.18" x2="581.95" y2="707.18"/>
      <line class="cls-3" x1="570.35" y1="721.67" x2="586.81" y2="721.67"/>
      <line class="cls-5" x1="662.91" y1="689.23" x2="662.91" y2="735.29"/>
      <line class="cls-5" x1="662.91" y1="620.27" x2="662.91" y2="674.93"/>
      <rect class="cls-10" x="655.31" y="674.93" width="14.3" height="14.3"/>
      <path class="cls-10" d="M654.67,531.19v-15.55c0-3.95,3.2-7.15,7.15-7.15h0c3.95,0,7.15,3.2,7.15,7.15v15.53h-14.3Z"/>
      <polygon class="cls-10" points="612.09 636.93 608.11 636.93 608.11 625.86 619.19 625.86 619.19 636.93 613.8 636.93 612.09 636.93"/>
      <rect class="cls-10" x="706.62" y="625.86" width="11.08" height="11.08" transform="translate(1424.33 1262.79) rotate(-180)"/>
      <line class="cls-5" x1="612.98" y1="720.26" x2="606.58" y2="743.07"/>
      <line class="cls-5" x1="712.63" y1="719.56" x2="719.24" y2="743.07"/>
      <line class="cls-4" x1="737.26" y1="635.05" x2="737.26" y2="707.18"/>
      <circle class="cls-12" cx="661.82" cy="553.37" r="10.81"/>
    </g>
    <g>
      <path class="cls-10" d="M350.75,627.38c-11.32.99-21.6-7.21-28.86-15.09-3.71-3.8-5.17-9.24-5.14-14.41,0-.09,0-.28-.01-.29-.02.07,0,.16.02.23.03.2.07.1-.18-.08-2.22-1.75-6.22-3.26-6.35-6.81-.08-.31-.23-.58-.86-1.42-.59-.78-1.32-2.06-1.57-3.33-.29-1.03-.19-2.21-.24-3.24,0,0-.07-5.45-.07-5.45,0-.86-.05-3.25-.05-4.08,0,0,0-.68,0-.68v-.35c-.06-2.84,1.78-5.6,4.03-7.03,2.06-1.35,4.15-2.24,6.57-2.56,9.67.02,23.16-.16,32.68-.06,8.14.02,24.54.1,32.68.21,2.39.33,4.45,1.22,6.48,2.54,2.21,1.41,4.03,4.1,3.97,6.89,0,.17,0,.84,0,1.03-.02.83-.04,3.21-.06,4.08,0,0-.09,5.45-.09,5.45l-.03,1.39c.04,1.71-.79,3.89-1.76,5.07-.61.83-.79,1.14-.88,1.5-.12,3.48-4.1,4.99-6.29,6.72-.26.19-.25.31-.23.16.03-.06.03-.12.02-.18-.01.02,0,.2-.01.3,0,5.13-1.39,10.54-5.07,14.32-7.33,7.9-17.35,16.06-28.74,15.19-.28-.03-.47-.28-.44-.55.03-.26.26-.46.52-.45,10.59-.14,19.71-8.59,26.07-16.34,2.8-3.18,3.73-7.33,3.61-11.52,0,0-.01-.66-.01-.66-.17-1.17.76-2.76,1.42-3.28,1.56-1.58,3.57-2.28,4.7-3.79-.03.02-.04.06-.02.09.03-.94.33-1.98.76-2.76.6-1.11,1.42-1.96,1.58-2.99.16-.55.02-1.65.05-2.23,0,0-.2-10.71-.2-10.71,0-.47-.2-.83-.47-1.24-1.14-1.52-3.47-2.35-5.32-2.74,0,0,.48.04.48.04l-16.34.15c-15.22.08-33.8.1-49.02,0,0,0,.51-.05.51-.05-.58.13-1.48.37-2.08.62-1.71.67-3.72,1.73-3.63,3.71,0,0,0,.68,0,.68,0,.83-.05,3.21-.05,4.08,0,0-.07,5.45-.07,5.45,0,1.41-.19,2.46.76,3.75.81,1.07,1.62,2.72,1.63,4.21.03-.05-.02-.12-.03-.15,1.08,1.44,3.11,2.18,4.65,3.73.68.52,1.65,2.2,1.48,3.41,0,0,0,.65,0,.65-.09,4.14.76,8.26,3.54,11.42,4.36,5.45,9.67,10.46,15.88,13.74,3.11,1.59,6.53,2.73,10.07,2.69.62-.03.69.94.07,1h0Z"/>
      <circle class="cls-10" cx="415.56" cy="692.71" r="15.66"/>
      <path class="cls-10" d="M373.06,626.44c.49.48-.28,23.54-4.82,33.87,0,0,11.95-15.54,25.57-18.88v-2.81c-6.04-1.47-11.36-6.49-16.33-13.25l-4.42,1.07Z"/>
      <path class="cls-10" d="M366.25,722.25h-96.11c-3.76,0-6.72-3.2-6.42-6.95l3.59-51.72c.3-4.31,2.96-8.1,6.91-9.85l35.82-15.83c2.2-.97,4.23-2.3,6-3.93l9.37-8.6,3.55,21.34c4.65,24.15,11.19,46.21,21.02,64.66l9.5-17.27c.41,9.44,2.88,18.81,6.76,28.15Z"/>
      <path class="cls-10" d="M350.72,507.21c-5.71,0-11.13,1.05-16.01,2.94h0c2.26,15.03,4.08,29.1,3.3,37.49-3.31-7.07-5.97-20.89-8.6-34.99h0c-10.74,6.01-17.84,16.44-17.84,28.3,0,.6.02,1.2.05,1.79.08,1.38-.54,2.71-1.69,3.49l-3.32,2.27c-1.23.84-1.96,2.24-1.96,3.72v6.32c0,1.77.84,3.45,2.26,4.51h0c.94.71,2.09,1.09,3.26,1.09h3.5c1.57,0,3.1.51,4.37,1.45l7.7,5.75c1.63,1.21,3.6,1.87,5.63,1.87h19.35s19.35,0,19.35,0c2.03,0,4-.66,5.63-1.87l7.7-5.75c1.26-.94,2.79-1.45,4.37-1.45h3.5c1.18,0,2.32-.38,3.26-1.09h0c1.42-1.06,2.26-2.74,2.26-4.51v-6.32c0-1.49-.73-2.88-1.96-3.72l-3.32-2.27c-1.14-.78-1.77-2.11-1.69-3.49.04-.59.05-1.19.05-1.79,0-11.86-7.1-22.29-17.84-28.3h0c-2.63,14.1-5.29,27.93-8.6,35-.79-8.39,1.03-22.46,3.3-37.48h0c-4.89-1.89-10.31-2.94-16.01-2.94Z"/>
      <path class="cls-10" d="M356.18,632.13c4.69.4,5.39,9.87-.17,21.12l5.84,24.75c.18.91.08,1.84-.29,2.69l-11.67,24.3c-3.78-7.75-6.42-16.27-9.23-25.28-.23-.74-.26-1.51-.1-2.27.93-4.37,4.19-19.97,4.31-24.56-2.34-5.89-9.97-16.06-.74-19.55l12.05-1.2Z"/>
      <path class="cls-10" d="M415.56,641.07c-28.52,0-51.63,23.12-51.63,51.63s23.12,51.63,51.63,51.63,51.63-23.12,51.63-51.63-23.12-51.63-51.63-51.63ZM421.84,663.05c-.09-.02-.19-.04-.28-.06.09.02.19.04.28.06ZM385.9,686.44c-.02.09-.04.18-.06.28.02-.09.04-.18.06-.28ZM409.29,722.37c.09.02.19.04.28.06-.09-.02-.19-.04-.28-.06ZM445.22,698.98c.02-.09.04-.18.06-.28-.02.09-.04.18-.06.28ZM445.31,698.49h-7.66l-3.19,7.86,4.76,5.27c-1.91,2.39-4.17,4.5-6.71,6.21l-5.43-5.43-7.81,3.31-.36,7.11c-1.1.12-2.22.2-3.35.2-1.98,0-3.91-.2-5.78-.57v-7.66l-7.86-3.19-5.27,4.76c-2.39-1.91-4.5-4.17-6.21-6.71l5.43-5.43-3.3-7.81-7.11-.36c-.12-1.1-.2-2.22-.2-3.35,0-1.98.2-3.91.57-5.78h7.66s3.19-7.86,3.19-7.86l-4.76-5.27c1.91-2.39,4.17-4.5,6.71-6.21l5.43,5.43,7.81-3.3.36-7.11c1.1-.12,2.22-.2,3.35-.2,1.98,0,3.91.2,5.78.57v7.66l7.86,3.19,5.27-4.76c2.39,1.91,4.5,4.17,6.21,6.71l-5.43,5.43,3.3,7.81,7.11.36c.12,1.1.2,2.22.2,3.35,0,1.98-.2,3.91-.57,5.78Z"/>
    </g>
    <polyline class="cls-2" points="197.32 333.2 510.16 511.5 510.16 869.67"/>
    <polyline class="cls-2" points="823.01 333.2 510.16 511.5 510.16 869.67"/>
    <text class="cls-9" transform="translate(64.77 1159.67)"><tspan class="cls-16" x="0" y="0">M</tspan><tspan class="cls-17" x="40.37" y="0">O</tspan><tspan class="cls-1" x="72.93" y="0">T</tspan><tspan class="cls-18" x="104.28" y="0">T</tspan><tspan class="cls-16" x="134.86" y="0">O</tspan><tspan class="cls-14" x="167.64" y="0">:</tspan><tspan class="cls-16" x="186.83" y="0">TECHNO</tspan><tspan class="cls-17" x="381.15" y="0">L</tspan><tspan class="cls-16" x="410.63" y="0">O</tspan><tspan class="cls-7" x="443.41" y="0">G</tspan><tspan class="cls-15" x="474.87" y="0">Y FOR HUMANI</tspan><tspan class="cls-13" x="837.48" y="0">T</tspan><tspan class="cls-16" x="868.5" y="0">Y</tspan></text>
  </g>
</svg>